M48
; DRILL file {KiCad 9.0.2} date 2025-06-27T15:56:47+0200
; FORMAT={-:-/ absolute / metric / decimal}
; #@! TF.CreationDate,2025-06-27T15:56:47+02:00
; #@! TF.GenerationSoftware,Kicad,Pcbnew,9.0.2
; #@! TF.FileFunction,Plated,1,2,PTH
FMAT,2
METRIC
; #@! TA.AperFunction,Plated,PTH,ViaDrill
T1C0.300
; #@! TA.AperFunction,Plated,PTH,ComponentDrill
T2C0.889
; #@! TA.AperFunction,Plated,PTH,ComponentDrill
T3C1.500
%
G90
G05
T1
X97.4Y-88.3
X100.5Y-94.0
X104.775Y-69.056
X107.156Y-69.056
X107.437Y-76.734
X109.537Y-80.962
X111.919Y-83.344
X117.578Y-81.551
X140.2Y-78.0
T2
X95.2Y-75.56
X95.2Y-90.8
X97.74Y-75.56
X97.74Y-90.8
X100.28Y-75.56
X100.28Y-90.8
X102.82Y-75.56
X102.82Y-90.8
X105.36Y-75.56
X105.36Y-90.8
X107.9Y-75.56
X107.9Y-90.8
X110.44Y-75.56
X110.44Y-90.8
T3
X118.9Y-61.57
X118.9Y-80.65
X118.9Y-99.72
X125.25Y-59.03
X125.25Y-78.11
X125.25Y-97.18
X137.94Y-61.59
X137.94Y-99.72
X137.96Y-80.63
X144.29Y-59.05
X144.29Y-97.18
X144.31Y-78.09
X157.01Y-61.59
X157.01Y-80.65
X157.01Y-99.7
X163.36Y-59.05
X163.36Y-78.11
X163.36Y-97.16
X176.09Y-80.64
X182.44Y-78.1
M30
