%TF.GenerationSoftware,KiCad,Pcbnew,9.0.2*%
%TF.CreationDate,2025-06-28T19:25:42+02:00*%
%TF.ProjectId,Hackpad,4861636b-7061-4642-9e6b-696361645f70,rev?*%
%TF.SameCoordinates,Original*%
%TF.FileFunction,Soldermask,Bot*%
%TF.FilePolarity,Negative*%
%FSLAX46Y46*%
G04 Gerber Fmt 4.6, Leading zero omitted, Abs format (unit mm)*
G04 Created by KiCad (PCBNEW 9.0.2) date 2025-06-28 19:25:42*
%MOMM*%
%LPD*%
G01*
G04 APERTURE LIST*
%ADD10C,1.700000*%
%ADD11C,4.000000*%
%ADD12C,2.200000*%
%ADD13C,1.524000*%
G04 APERTURE END LIST*
D10*
%TO.C,SW6*%
X117629998Y-64110000D03*
D11*
X122709998Y-64110000D03*
D10*
X127789998Y-64110000D03*
D12*
X125249998Y-59030000D03*
X118899998Y-61570000D03*
%TD*%
D10*
%TO.C,SW9*%
X155739998Y-64130000D03*
D11*
X160819998Y-64130000D03*
D10*
X165899998Y-64130000D03*
D12*
X163359998Y-59050000D03*
X157009998Y-61590000D03*
%TD*%
D10*
%TO.C,SW7*%
X136669998Y-64130000D03*
D11*
X141749998Y-64130000D03*
D10*
X146829998Y-64130000D03*
D12*
X144289998Y-59050000D03*
X137939998Y-61590000D03*
%TD*%
D10*
%TO.C,SW3*%
X136689998Y-83170000D03*
D11*
X141769998Y-83170000D03*
D10*
X146849998Y-83170000D03*
D12*
X144309998Y-78090000D03*
X137959998Y-80630000D03*
%TD*%
D13*
%TO.C,U1*%
X95200000Y-90800000D03*
X97740000Y-90800000D03*
X100280000Y-90800000D03*
X102820000Y-90800000D03*
X105360000Y-90800000D03*
X107900000Y-90800000D03*
X110440000Y-90800000D03*
X110440000Y-75560000D03*
X107900000Y-75560000D03*
X105360000Y-75560000D03*
X102820000Y-75560000D03*
X100280000Y-75560000D03*
X97740000Y-75560000D03*
X95200000Y-75560000D03*
%TD*%
D10*
%TO.C,SW8*%
X155739998Y-83190000D03*
D11*
X160819998Y-83190000D03*
D10*
X165899998Y-83190000D03*
D12*
X163359998Y-78110000D03*
X157009998Y-80650000D03*
%TD*%
D10*
%TO.C,SW4*%
X117629998Y-102260000D03*
D11*
X122709998Y-102260000D03*
D10*
X127789998Y-102260000D03*
D12*
X125249998Y-97180000D03*
X118899998Y-99720000D03*
%TD*%
D10*
%TO.C,SW1*%
X174819998Y-83180000D03*
D11*
X179899998Y-83180000D03*
D10*
X184979998Y-83180000D03*
D12*
X182439998Y-78100000D03*
X176089998Y-80640000D03*
%TD*%
D10*
%TO.C,SW5*%
X136669998Y-102260000D03*
D11*
X141749998Y-102260000D03*
D10*
X146829998Y-102260000D03*
D12*
X144289998Y-97180000D03*
X137939998Y-99720000D03*
%TD*%
D10*
%TO.C,SW2*%
X117629998Y-83190000D03*
D11*
X122709998Y-83190000D03*
D10*
X127789998Y-83190000D03*
D12*
X125249998Y-78110000D03*
X118899998Y-80650000D03*
%TD*%
D10*
%TO.C,SW10*%
X155739998Y-102240000D03*
D11*
X160819998Y-102240000D03*
D10*
X165899998Y-102240000D03*
D12*
X163359998Y-97160000D03*
X157009998Y-99700000D03*
%TD*%
M02*
