%TF.GenerationSoftware,KiCad,Pcbnew,9.0.2*%
%TF.CreationDate,2025-06-28T19:25:42+02:00*%
%TF.ProjectId,Hackpad,4861636b-7061-4642-9e6b-696361645f70,rev?*%
%TF.SameCoordinates,Original*%
%TF.FileFunction,Legend,Top*%
%TF.FilePolarity,Positive*%
%FSLAX46Y46*%
G04 Gerber Fmt 4.6, Leading zero omitted, Abs format (unit mm)*
G04 Created by KiCad (PCBNEW 9.0.2) date 2025-06-28 19:25:42*
%MOMM*%
%LPD*%
G01*
G04 APERTURE LIST*
%ADD10C,0.150000*%
%ADD11C,0.120000*%
%ADD12C,0.127000*%
%ADD13C,0.100000*%
%ADD14C,0.504000*%
G04 APERTURE END LIST*
D10*
X121376665Y-56643200D02*
X121519522Y-56690819D01*
X121519522Y-56690819D02*
X121757617Y-56690819D01*
X121757617Y-56690819D02*
X121852855Y-56643200D01*
X121852855Y-56643200D02*
X121900474Y-56595580D01*
X121900474Y-56595580D02*
X121948093Y-56500342D01*
X121948093Y-56500342D02*
X121948093Y-56405104D01*
X121948093Y-56405104D02*
X121900474Y-56309866D01*
X121900474Y-56309866D02*
X121852855Y-56262247D01*
X121852855Y-56262247D02*
X121757617Y-56214628D01*
X121757617Y-56214628D02*
X121567141Y-56167009D01*
X121567141Y-56167009D02*
X121471903Y-56119390D01*
X121471903Y-56119390D02*
X121424284Y-56071771D01*
X121424284Y-56071771D02*
X121376665Y-55976533D01*
X121376665Y-55976533D02*
X121376665Y-55881295D01*
X121376665Y-55881295D02*
X121424284Y-55786057D01*
X121424284Y-55786057D02*
X121471903Y-55738438D01*
X121471903Y-55738438D02*
X121567141Y-55690819D01*
X121567141Y-55690819D02*
X121805236Y-55690819D01*
X121805236Y-55690819D02*
X121948093Y-55738438D01*
X122281427Y-55690819D02*
X122519522Y-56690819D01*
X122519522Y-56690819D02*
X122709998Y-55976533D01*
X122709998Y-55976533D02*
X122900474Y-56690819D01*
X122900474Y-56690819D02*
X123138570Y-55690819D01*
X123948093Y-55690819D02*
X123757617Y-55690819D01*
X123757617Y-55690819D02*
X123662379Y-55738438D01*
X123662379Y-55738438D02*
X123614760Y-55786057D01*
X123614760Y-55786057D02*
X123519522Y-55928914D01*
X123519522Y-55928914D02*
X123471903Y-56119390D01*
X123471903Y-56119390D02*
X123471903Y-56500342D01*
X123471903Y-56500342D02*
X123519522Y-56595580D01*
X123519522Y-56595580D02*
X123567141Y-56643200D01*
X123567141Y-56643200D02*
X123662379Y-56690819D01*
X123662379Y-56690819D02*
X123852855Y-56690819D01*
X123852855Y-56690819D02*
X123948093Y-56643200D01*
X123948093Y-56643200D02*
X123995712Y-56595580D01*
X123995712Y-56595580D02*
X124043331Y-56500342D01*
X124043331Y-56500342D02*
X124043331Y-56262247D01*
X124043331Y-56262247D02*
X123995712Y-56167009D01*
X123995712Y-56167009D02*
X123948093Y-56119390D01*
X123948093Y-56119390D02*
X123852855Y-56071771D01*
X123852855Y-56071771D02*
X123662379Y-56071771D01*
X123662379Y-56071771D02*
X123567141Y-56119390D01*
X123567141Y-56119390D02*
X123519522Y-56167009D01*
X123519522Y-56167009D02*
X123471903Y-56262247D01*
X159486665Y-56663200D02*
X159629522Y-56710819D01*
X159629522Y-56710819D02*
X159867617Y-56710819D01*
X159867617Y-56710819D02*
X159962855Y-56663200D01*
X159962855Y-56663200D02*
X160010474Y-56615580D01*
X160010474Y-56615580D02*
X160058093Y-56520342D01*
X160058093Y-56520342D02*
X160058093Y-56425104D01*
X160058093Y-56425104D02*
X160010474Y-56329866D01*
X160010474Y-56329866D02*
X159962855Y-56282247D01*
X159962855Y-56282247D02*
X159867617Y-56234628D01*
X159867617Y-56234628D02*
X159677141Y-56187009D01*
X159677141Y-56187009D02*
X159581903Y-56139390D01*
X159581903Y-56139390D02*
X159534284Y-56091771D01*
X159534284Y-56091771D02*
X159486665Y-55996533D01*
X159486665Y-55996533D02*
X159486665Y-55901295D01*
X159486665Y-55901295D02*
X159534284Y-55806057D01*
X159534284Y-55806057D02*
X159581903Y-55758438D01*
X159581903Y-55758438D02*
X159677141Y-55710819D01*
X159677141Y-55710819D02*
X159915236Y-55710819D01*
X159915236Y-55710819D02*
X160058093Y-55758438D01*
X160391427Y-55710819D02*
X160629522Y-56710819D01*
X160629522Y-56710819D02*
X160819998Y-55996533D01*
X160819998Y-55996533D02*
X161010474Y-56710819D01*
X161010474Y-56710819D02*
X161248570Y-55710819D01*
X161677141Y-56710819D02*
X161867617Y-56710819D01*
X161867617Y-56710819D02*
X161962855Y-56663200D01*
X161962855Y-56663200D02*
X162010474Y-56615580D01*
X162010474Y-56615580D02*
X162105712Y-56472723D01*
X162105712Y-56472723D02*
X162153331Y-56282247D01*
X162153331Y-56282247D02*
X162153331Y-55901295D01*
X162153331Y-55901295D02*
X162105712Y-55806057D01*
X162105712Y-55806057D02*
X162058093Y-55758438D01*
X162058093Y-55758438D02*
X161962855Y-55710819D01*
X161962855Y-55710819D02*
X161772379Y-55710819D01*
X161772379Y-55710819D02*
X161677141Y-55758438D01*
X161677141Y-55758438D02*
X161629522Y-55806057D01*
X161629522Y-55806057D02*
X161581903Y-55901295D01*
X161581903Y-55901295D02*
X161581903Y-56139390D01*
X161581903Y-56139390D02*
X161629522Y-56234628D01*
X161629522Y-56234628D02*
X161677141Y-56282247D01*
X161677141Y-56282247D02*
X161772379Y-56329866D01*
X161772379Y-56329866D02*
X161962855Y-56329866D01*
X161962855Y-56329866D02*
X162058093Y-56282247D01*
X162058093Y-56282247D02*
X162105712Y-56234628D01*
X162105712Y-56234628D02*
X162153331Y-56139390D01*
X140416665Y-56663200D02*
X140559522Y-56710819D01*
X140559522Y-56710819D02*
X140797617Y-56710819D01*
X140797617Y-56710819D02*
X140892855Y-56663200D01*
X140892855Y-56663200D02*
X140940474Y-56615580D01*
X140940474Y-56615580D02*
X140988093Y-56520342D01*
X140988093Y-56520342D02*
X140988093Y-56425104D01*
X140988093Y-56425104D02*
X140940474Y-56329866D01*
X140940474Y-56329866D02*
X140892855Y-56282247D01*
X140892855Y-56282247D02*
X140797617Y-56234628D01*
X140797617Y-56234628D02*
X140607141Y-56187009D01*
X140607141Y-56187009D02*
X140511903Y-56139390D01*
X140511903Y-56139390D02*
X140464284Y-56091771D01*
X140464284Y-56091771D02*
X140416665Y-55996533D01*
X140416665Y-55996533D02*
X140416665Y-55901295D01*
X140416665Y-55901295D02*
X140464284Y-55806057D01*
X140464284Y-55806057D02*
X140511903Y-55758438D01*
X140511903Y-55758438D02*
X140607141Y-55710819D01*
X140607141Y-55710819D02*
X140845236Y-55710819D01*
X140845236Y-55710819D02*
X140988093Y-55758438D01*
X141321427Y-55710819D02*
X141559522Y-56710819D01*
X141559522Y-56710819D02*
X141749998Y-55996533D01*
X141749998Y-55996533D02*
X141940474Y-56710819D01*
X141940474Y-56710819D02*
X142178570Y-55710819D01*
X142464284Y-55710819D02*
X143130950Y-55710819D01*
X143130950Y-55710819D02*
X142702379Y-56710819D01*
X140436665Y-75703200D02*
X140579522Y-75750819D01*
X140579522Y-75750819D02*
X140817617Y-75750819D01*
X140817617Y-75750819D02*
X140912855Y-75703200D01*
X140912855Y-75703200D02*
X140960474Y-75655580D01*
X140960474Y-75655580D02*
X141008093Y-75560342D01*
X141008093Y-75560342D02*
X141008093Y-75465104D01*
X141008093Y-75465104D02*
X140960474Y-75369866D01*
X140960474Y-75369866D02*
X140912855Y-75322247D01*
X140912855Y-75322247D02*
X140817617Y-75274628D01*
X140817617Y-75274628D02*
X140627141Y-75227009D01*
X140627141Y-75227009D02*
X140531903Y-75179390D01*
X140531903Y-75179390D02*
X140484284Y-75131771D01*
X140484284Y-75131771D02*
X140436665Y-75036533D01*
X140436665Y-75036533D02*
X140436665Y-74941295D01*
X140436665Y-74941295D02*
X140484284Y-74846057D01*
X140484284Y-74846057D02*
X140531903Y-74798438D01*
X140531903Y-74798438D02*
X140627141Y-74750819D01*
X140627141Y-74750819D02*
X140865236Y-74750819D01*
X140865236Y-74750819D02*
X141008093Y-74798438D01*
X141341427Y-74750819D02*
X141579522Y-75750819D01*
X141579522Y-75750819D02*
X141769998Y-75036533D01*
X141769998Y-75036533D02*
X141960474Y-75750819D01*
X141960474Y-75750819D02*
X142198570Y-74750819D01*
X142484284Y-74750819D02*
X143103331Y-74750819D01*
X143103331Y-74750819D02*
X142769998Y-75131771D01*
X142769998Y-75131771D02*
X142912855Y-75131771D01*
X142912855Y-75131771D02*
X143008093Y-75179390D01*
X143008093Y-75179390D02*
X143055712Y-75227009D01*
X143055712Y-75227009D02*
X143103331Y-75322247D01*
X143103331Y-75322247D02*
X143103331Y-75560342D01*
X143103331Y-75560342D02*
X143055712Y-75655580D01*
X143055712Y-75655580D02*
X143008093Y-75703200D01*
X143008093Y-75703200D02*
X142912855Y-75750819D01*
X142912855Y-75750819D02*
X142627141Y-75750819D01*
X142627141Y-75750819D02*
X142531903Y-75703200D01*
X142531903Y-75703200D02*
X142484284Y-75655580D01*
X159486665Y-75723200D02*
X159629522Y-75770819D01*
X159629522Y-75770819D02*
X159867617Y-75770819D01*
X159867617Y-75770819D02*
X159962855Y-75723200D01*
X159962855Y-75723200D02*
X160010474Y-75675580D01*
X160010474Y-75675580D02*
X160058093Y-75580342D01*
X160058093Y-75580342D02*
X160058093Y-75485104D01*
X160058093Y-75485104D02*
X160010474Y-75389866D01*
X160010474Y-75389866D02*
X159962855Y-75342247D01*
X159962855Y-75342247D02*
X159867617Y-75294628D01*
X159867617Y-75294628D02*
X159677141Y-75247009D01*
X159677141Y-75247009D02*
X159581903Y-75199390D01*
X159581903Y-75199390D02*
X159534284Y-75151771D01*
X159534284Y-75151771D02*
X159486665Y-75056533D01*
X159486665Y-75056533D02*
X159486665Y-74961295D01*
X159486665Y-74961295D02*
X159534284Y-74866057D01*
X159534284Y-74866057D02*
X159581903Y-74818438D01*
X159581903Y-74818438D02*
X159677141Y-74770819D01*
X159677141Y-74770819D02*
X159915236Y-74770819D01*
X159915236Y-74770819D02*
X160058093Y-74818438D01*
X160391427Y-74770819D02*
X160629522Y-75770819D01*
X160629522Y-75770819D02*
X160819998Y-75056533D01*
X160819998Y-75056533D02*
X161010474Y-75770819D01*
X161010474Y-75770819D02*
X161248570Y-74770819D01*
X161772379Y-75199390D02*
X161677141Y-75151771D01*
X161677141Y-75151771D02*
X161629522Y-75104152D01*
X161629522Y-75104152D02*
X161581903Y-75008914D01*
X161581903Y-75008914D02*
X161581903Y-74961295D01*
X161581903Y-74961295D02*
X161629522Y-74866057D01*
X161629522Y-74866057D02*
X161677141Y-74818438D01*
X161677141Y-74818438D02*
X161772379Y-74770819D01*
X161772379Y-74770819D02*
X161962855Y-74770819D01*
X161962855Y-74770819D02*
X162058093Y-74818438D01*
X162058093Y-74818438D02*
X162105712Y-74866057D01*
X162105712Y-74866057D02*
X162153331Y-74961295D01*
X162153331Y-74961295D02*
X162153331Y-75008914D01*
X162153331Y-75008914D02*
X162105712Y-75104152D01*
X162105712Y-75104152D02*
X162058093Y-75151771D01*
X162058093Y-75151771D02*
X161962855Y-75199390D01*
X161962855Y-75199390D02*
X161772379Y-75199390D01*
X161772379Y-75199390D02*
X161677141Y-75247009D01*
X161677141Y-75247009D02*
X161629522Y-75294628D01*
X161629522Y-75294628D02*
X161581903Y-75389866D01*
X161581903Y-75389866D02*
X161581903Y-75580342D01*
X161581903Y-75580342D02*
X161629522Y-75675580D01*
X161629522Y-75675580D02*
X161677141Y-75723200D01*
X161677141Y-75723200D02*
X161772379Y-75770819D01*
X161772379Y-75770819D02*
X161962855Y-75770819D01*
X161962855Y-75770819D02*
X162058093Y-75723200D01*
X162058093Y-75723200D02*
X162105712Y-75675580D01*
X162105712Y-75675580D02*
X162153331Y-75580342D01*
X162153331Y-75580342D02*
X162153331Y-75389866D01*
X162153331Y-75389866D02*
X162105712Y-75294628D01*
X162105712Y-75294628D02*
X162058093Y-75247009D01*
X162058093Y-75247009D02*
X161962855Y-75199390D01*
X121376665Y-94793200D02*
X121519522Y-94840819D01*
X121519522Y-94840819D02*
X121757617Y-94840819D01*
X121757617Y-94840819D02*
X121852855Y-94793200D01*
X121852855Y-94793200D02*
X121900474Y-94745580D01*
X121900474Y-94745580D02*
X121948093Y-94650342D01*
X121948093Y-94650342D02*
X121948093Y-94555104D01*
X121948093Y-94555104D02*
X121900474Y-94459866D01*
X121900474Y-94459866D02*
X121852855Y-94412247D01*
X121852855Y-94412247D02*
X121757617Y-94364628D01*
X121757617Y-94364628D02*
X121567141Y-94317009D01*
X121567141Y-94317009D02*
X121471903Y-94269390D01*
X121471903Y-94269390D02*
X121424284Y-94221771D01*
X121424284Y-94221771D02*
X121376665Y-94126533D01*
X121376665Y-94126533D02*
X121376665Y-94031295D01*
X121376665Y-94031295D02*
X121424284Y-93936057D01*
X121424284Y-93936057D02*
X121471903Y-93888438D01*
X121471903Y-93888438D02*
X121567141Y-93840819D01*
X121567141Y-93840819D02*
X121805236Y-93840819D01*
X121805236Y-93840819D02*
X121948093Y-93888438D01*
X122281427Y-93840819D02*
X122519522Y-94840819D01*
X122519522Y-94840819D02*
X122709998Y-94126533D01*
X122709998Y-94126533D02*
X122900474Y-94840819D01*
X122900474Y-94840819D02*
X123138570Y-93840819D01*
X123948093Y-94174152D02*
X123948093Y-94840819D01*
X123709998Y-93793200D02*
X123471903Y-94507485D01*
X123471903Y-94507485D02*
X124090950Y-94507485D01*
X178566665Y-75713200D02*
X178709522Y-75760819D01*
X178709522Y-75760819D02*
X178947617Y-75760819D01*
X178947617Y-75760819D02*
X179042855Y-75713200D01*
X179042855Y-75713200D02*
X179090474Y-75665580D01*
X179090474Y-75665580D02*
X179138093Y-75570342D01*
X179138093Y-75570342D02*
X179138093Y-75475104D01*
X179138093Y-75475104D02*
X179090474Y-75379866D01*
X179090474Y-75379866D02*
X179042855Y-75332247D01*
X179042855Y-75332247D02*
X178947617Y-75284628D01*
X178947617Y-75284628D02*
X178757141Y-75237009D01*
X178757141Y-75237009D02*
X178661903Y-75189390D01*
X178661903Y-75189390D02*
X178614284Y-75141771D01*
X178614284Y-75141771D02*
X178566665Y-75046533D01*
X178566665Y-75046533D02*
X178566665Y-74951295D01*
X178566665Y-74951295D02*
X178614284Y-74856057D01*
X178614284Y-74856057D02*
X178661903Y-74808438D01*
X178661903Y-74808438D02*
X178757141Y-74760819D01*
X178757141Y-74760819D02*
X178995236Y-74760819D01*
X178995236Y-74760819D02*
X179138093Y-74808438D01*
X179471427Y-74760819D02*
X179709522Y-75760819D01*
X179709522Y-75760819D02*
X179899998Y-75046533D01*
X179899998Y-75046533D02*
X180090474Y-75760819D01*
X180090474Y-75760819D02*
X180328570Y-74760819D01*
X181233331Y-75760819D02*
X180661903Y-75760819D01*
X180947617Y-75760819D02*
X180947617Y-74760819D01*
X180947617Y-74760819D02*
X180852379Y-74903676D01*
X180852379Y-74903676D02*
X180757141Y-74998914D01*
X180757141Y-74998914D02*
X180661903Y-75046533D01*
X140416665Y-94793200D02*
X140559522Y-94840819D01*
X140559522Y-94840819D02*
X140797617Y-94840819D01*
X140797617Y-94840819D02*
X140892855Y-94793200D01*
X140892855Y-94793200D02*
X140940474Y-94745580D01*
X140940474Y-94745580D02*
X140988093Y-94650342D01*
X140988093Y-94650342D02*
X140988093Y-94555104D01*
X140988093Y-94555104D02*
X140940474Y-94459866D01*
X140940474Y-94459866D02*
X140892855Y-94412247D01*
X140892855Y-94412247D02*
X140797617Y-94364628D01*
X140797617Y-94364628D02*
X140607141Y-94317009D01*
X140607141Y-94317009D02*
X140511903Y-94269390D01*
X140511903Y-94269390D02*
X140464284Y-94221771D01*
X140464284Y-94221771D02*
X140416665Y-94126533D01*
X140416665Y-94126533D02*
X140416665Y-94031295D01*
X140416665Y-94031295D02*
X140464284Y-93936057D01*
X140464284Y-93936057D02*
X140511903Y-93888438D01*
X140511903Y-93888438D02*
X140607141Y-93840819D01*
X140607141Y-93840819D02*
X140845236Y-93840819D01*
X140845236Y-93840819D02*
X140988093Y-93888438D01*
X141321427Y-93840819D02*
X141559522Y-94840819D01*
X141559522Y-94840819D02*
X141749998Y-94126533D01*
X141749998Y-94126533D02*
X141940474Y-94840819D01*
X141940474Y-94840819D02*
X142178570Y-93840819D01*
X143035712Y-93840819D02*
X142559522Y-93840819D01*
X142559522Y-93840819D02*
X142511903Y-94317009D01*
X142511903Y-94317009D02*
X142559522Y-94269390D01*
X142559522Y-94269390D02*
X142654760Y-94221771D01*
X142654760Y-94221771D02*
X142892855Y-94221771D01*
X142892855Y-94221771D02*
X142988093Y-94269390D01*
X142988093Y-94269390D02*
X143035712Y-94317009D01*
X143035712Y-94317009D02*
X143083331Y-94412247D01*
X143083331Y-94412247D02*
X143083331Y-94650342D01*
X143083331Y-94650342D02*
X143035712Y-94745580D01*
X143035712Y-94745580D02*
X142988093Y-94793200D01*
X142988093Y-94793200D02*
X142892855Y-94840819D01*
X142892855Y-94840819D02*
X142654760Y-94840819D01*
X142654760Y-94840819D02*
X142559522Y-94793200D01*
X142559522Y-94793200D02*
X142511903Y-94745580D01*
X121376665Y-75723200D02*
X121519522Y-75770819D01*
X121519522Y-75770819D02*
X121757617Y-75770819D01*
X121757617Y-75770819D02*
X121852855Y-75723200D01*
X121852855Y-75723200D02*
X121900474Y-75675580D01*
X121900474Y-75675580D02*
X121948093Y-75580342D01*
X121948093Y-75580342D02*
X121948093Y-75485104D01*
X121948093Y-75485104D02*
X121900474Y-75389866D01*
X121900474Y-75389866D02*
X121852855Y-75342247D01*
X121852855Y-75342247D02*
X121757617Y-75294628D01*
X121757617Y-75294628D02*
X121567141Y-75247009D01*
X121567141Y-75247009D02*
X121471903Y-75199390D01*
X121471903Y-75199390D02*
X121424284Y-75151771D01*
X121424284Y-75151771D02*
X121376665Y-75056533D01*
X121376665Y-75056533D02*
X121376665Y-74961295D01*
X121376665Y-74961295D02*
X121424284Y-74866057D01*
X121424284Y-74866057D02*
X121471903Y-74818438D01*
X121471903Y-74818438D02*
X121567141Y-74770819D01*
X121567141Y-74770819D02*
X121805236Y-74770819D01*
X121805236Y-74770819D02*
X121948093Y-74818438D01*
X122281427Y-74770819D02*
X122519522Y-75770819D01*
X122519522Y-75770819D02*
X122709998Y-75056533D01*
X122709998Y-75056533D02*
X122900474Y-75770819D01*
X122900474Y-75770819D02*
X123138570Y-74770819D01*
X123471903Y-74866057D02*
X123519522Y-74818438D01*
X123519522Y-74818438D02*
X123614760Y-74770819D01*
X123614760Y-74770819D02*
X123852855Y-74770819D01*
X123852855Y-74770819D02*
X123948093Y-74818438D01*
X123948093Y-74818438D02*
X123995712Y-74866057D01*
X123995712Y-74866057D02*
X124043331Y-74961295D01*
X124043331Y-74961295D02*
X124043331Y-75056533D01*
X124043331Y-75056533D02*
X123995712Y-75199390D01*
X123995712Y-75199390D02*
X123424284Y-75770819D01*
X123424284Y-75770819D02*
X124043331Y-75770819D01*
X159010474Y-94773200D02*
X159153331Y-94820819D01*
X159153331Y-94820819D02*
X159391426Y-94820819D01*
X159391426Y-94820819D02*
X159486664Y-94773200D01*
X159486664Y-94773200D02*
X159534283Y-94725580D01*
X159534283Y-94725580D02*
X159581902Y-94630342D01*
X159581902Y-94630342D02*
X159581902Y-94535104D01*
X159581902Y-94535104D02*
X159534283Y-94439866D01*
X159534283Y-94439866D02*
X159486664Y-94392247D01*
X159486664Y-94392247D02*
X159391426Y-94344628D01*
X159391426Y-94344628D02*
X159200950Y-94297009D01*
X159200950Y-94297009D02*
X159105712Y-94249390D01*
X159105712Y-94249390D02*
X159058093Y-94201771D01*
X159058093Y-94201771D02*
X159010474Y-94106533D01*
X159010474Y-94106533D02*
X159010474Y-94011295D01*
X159010474Y-94011295D02*
X159058093Y-93916057D01*
X159058093Y-93916057D02*
X159105712Y-93868438D01*
X159105712Y-93868438D02*
X159200950Y-93820819D01*
X159200950Y-93820819D02*
X159439045Y-93820819D01*
X159439045Y-93820819D02*
X159581902Y-93868438D01*
X159915236Y-93820819D02*
X160153331Y-94820819D01*
X160153331Y-94820819D02*
X160343807Y-94106533D01*
X160343807Y-94106533D02*
X160534283Y-94820819D01*
X160534283Y-94820819D02*
X160772379Y-93820819D01*
X161677140Y-94820819D02*
X161105712Y-94820819D01*
X161391426Y-94820819D02*
X161391426Y-93820819D01*
X161391426Y-93820819D02*
X161296188Y-93963676D01*
X161296188Y-93963676D02*
X161200950Y-94058914D01*
X161200950Y-94058914D02*
X161105712Y-94106533D01*
X162296188Y-93820819D02*
X162391426Y-93820819D01*
X162391426Y-93820819D02*
X162486664Y-93868438D01*
X162486664Y-93868438D02*
X162534283Y-93916057D01*
X162534283Y-93916057D02*
X162581902Y-94011295D01*
X162581902Y-94011295D02*
X162629521Y-94201771D01*
X162629521Y-94201771D02*
X162629521Y-94439866D01*
X162629521Y-94439866D02*
X162581902Y-94630342D01*
X162581902Y-94630342D02*
X162534283Y-94725580D01*
X162534283Y-94725580D02*
X162486664Y-94773200D01*
X162486664Y-94773200D02*
X162391426Y-94820819D01*
X162391426Y-94820819D02*
X162296188Y-94820819D01*
X162296188Y-94820819D02*
X162200950Y-94773200D01*
X162200950Y-94773200D02*
X162153331Y-94725580D01*
X162153331Y-94725580D02*
X162105712Y-94630342D01*
X162105712Y-94630342D02*
X162058093Y-94439866D01*
X162058093Y-94439866D02*
X162058093Y-94201771D01*
X162058093Y-94201771D02*
X162105712Y-94011295D01*
X162105712Y-94011295D02*
X162153331Y-93916057D01*
X162153331Y-93916057D02*
X162200950Y-93868438D01*
X162200950Y-93868438D02*
X162296188Y-93820819D01*
D11*
%TO.C,SW6*%
X115724998Y-57125000D02*
X129694998Y-57125000D01*
X115724998Y-71095000D02*
X115724998Y-57125000D01*
X129694998Y-57125000D02*
X129694998Y-71095000D01*
X129694998Y-71095000D02*
X115724998Y-71095000D01*
%TO.C,SW9*%
X153834998Y-57145000D02*
X167804998Y-57145000D01*
X153834998Y-71115000D02*
X153834998Y-57145000D01*
X167804998Y-57145000D02*
X167804998Y-71115000D01*
X167804998Y-71115000D02*
X153834998Y-71115000D01*
%TO.C,SW7*%
X134764998Y-57145000D02*
X148734998Y-57145000D01*
X134764998Y-71115000D02*
X134764998Y-57145000D01*
X148734998Y-57145000D02*
X148734998Y-71115000D01*
X148734998Y-71115000D02*
X134764998Y-71115000D01*
%TO.C,SW3*%
X134784998Y-76185000D02*
X148754998Y-76185000D01*
X134784998Y-90155000D02*
X134784998Y-76185000D01*
X148754998Y-76185000D02*
X148754998Y-90155000D01*
X148754998Y-90155000D02*
X134784998Y-90155000D01*
D12*
%TO.C,U1*%
X90869000Y-87171272D02*
X90869000Y-79176000D01*
X91369000Y-78676000D02*
X92279000Y-78676000D01*
D13*
X92279000Y-76195000D02*
X92279000Y-90165000D01*
D12*
X92279000Y-76195000D02*
X92279000Y-90165000D01*
X92279000Y-87675000D02*
X91368728Y-87671272D01*
X111329000Y-74290000D02*
X94184000Y-74290000D01*
X111329000Y-92070000D02*
X94184000Y-92070000D01*
X113234000Y-90165000D02*
X113234000Y-76195000D01*
X90869000Y-79176000D02*
G75*
G02*
X91369000Y-78676000I500000J0D01*
G01*
X91368728Y-87671272D02*
G75*
G02*
X90869001Y-87171272I291J500018D01*
G01*
X92279000Y-76195000D02*
G75*
G02*
X94184000Y-74290000I1905000J0D01*
G01*
X94184000Y-92070000D02*
G75*
G02*
X92279000Y-90165000I1J1905001D01*
G01*
X111329000Y-74290000D02*
G75*
G02*
X113234000Y-76195000I0J-1905000D01*
G01*
X113234000Y-90165000D02*
G75*
G02*
X111329000Y-92070000I-1905001J1D01*
G01*
D14*
X92772000Y-92130000D02*
G75*
G02*
X92268000Y-92130000I-252000J0D01*
G01*
X92268000Y-92130000D02*
G75*
G02*
X92772000Y-92130000I252000J0D01*
G01*
X93652000Y-90987000D02*
G75*
G02*
X93148000Y-90987000I-252000J0D01*
G01*
X93148000Y-90987000D02*
G75*
G02*
X93652000Y-90987000I252000J0D01*
G01*
D11*
%TO.C,D4*%
X106119998Y-94440000D02*
X106119998Y-98440000D01*
X106119998Y-94440000D02*
X111719998Y-94440000D01*
X106119998Y-98440000D02*
X111119998Y-98440000D01*
X111719998Y-97840000D02*
X111119998Y-98440000D01*
X111719998Y-97840000D02*
X111719998Y-94440000D01*
%TO.C,SW8*%
X153834998Y-76205000D02*
X167804998Y-76205000D01*
X153834998Y-90175000D02*
X153834998Y-76205000D01*
X167804998Y-76205000D02*
X167804998Y-90175000D01*
X167804998Y-90175000D02*
X153834998Y-90175000D01*
%TO.C,SW4*%
X115724998Y-95275000D02*
X129694998Y-95275000D01*
X115724998Y-109245000D02*
X115724998Y-95275000D01*
X129694998Y-95275000D02*
X129694998Y-109245000D01*
X129694998Y-109245000D02*
X115724998Y-109245000D01*
%TO.C,SW1*%
X172914998Y-76195000D02*
X186884998Y-76195000D01*
X172914998Y-90165000D02*
X172914998Y-76195000D01*
X186884998Y-76195000D02*
X186884998Y-90165000D01*
X186884998Y-90165000D02*
X172914998Y-90165000D01*
%TO.C,SW5*%
X134764998Y-95275000D02*
X148734998Y-95275000D01*
X134764998Y-109245000D02*
X134764998Y-95275000D01*
X148734998Y-95275000D02*
X148734998Y-109245000D01*
X148734998Y-109245000D02*
X134764998Y-109245000D01*
%TO.C,SW2*%
X115724998Y-76205000D02*
X129694998Y-76205000D01*
X115724998Y-90175000D02*
X115724998Y-76205000D01*
X129694998Y-76205000D02*
X129694998Y-90175000D01*
X129694998Y-90175000D02*
X115724998Y-90175000D01*
%TO.C,D5*%
X106119998Y-99560000D02*
X106119998Y-103560000D01*
X106119998Y-99560000D02*
X111719998Y-99560000D01*
X106119998Y-103560000D02*
X111119998Y-103560000D01*
X111719998Y-102960000D02*
X111119998Y-103560000D01*
X111719998Y-102960000D02*
X111719998Y-99560000D01*
%TO.C,D3*%
X106329998Y-68900000D02*
X106329998Y-72900000D01*
X106329998Y-68900000D02*
X111929998Y-68900000D01*
X106329998Y-72900000D02*
X111329998Y-72900000D01*
X111929998Y-72300000D02*
X111329998Y-72900000D01*
X111929998Y-72300000D02*
X111929998Y-68900000D01*
%TO.C,SW10*%
X153834998Y-95255000D02*
X167804998Y-95255000D01*
X153834998Y-109225000D02*
X153834998Y-95255000D01*
X167804998Y-95255000D02*
X167804998Y-109225000D01*
X167804998Y-109225000D02*
X153834998Y-109225000D01*
%TO.C,D2*%
X106329998Y-63780000D02*
X106329998Y-67780000D01*
X106329998Y-63780000D02*
X111929998Y-63780000D01*
X106329998Y-67780000D02*
X111329998Y-67780000D01*
X111929998Y-67180000D02*
X111329998Y-67780000D01*
X111929998Y-67180000D02*
X111929998Y-63780000D01*
%TD*%
M02*
