M48
; DRILL file {KiCad 9.0.2} date 2025-06-28T17:39:07+0200
; FORMAT={-:-/ absolute / metric / decimal}
; #@! TF.CreationDate,2025-06-28T17:39:07+02:00
; #@! TF.GenerationSoftware,Kicad,Pcbnew,9.0.2
; #@! TF.FileFunction,NonPlated,1,2,NPTH
FMAT,2
METRIC
; #@! TA.AperFunction,NonPlated,NPTH,ComponentDrill
T1C1.700
; #@! TA.AperFunction,NonPlated,NPTH,ComponentDrill
T2C4.000
%
G90
G05
T1
X117.63Y-64.11
X117.63Y-83.19
X117.63Y-102.26
X127.79Y-64.11
X127.79Y-83.19
X127.79Y-102.26
X136.67Y-64.13
X136.67Y-102.26
X136.69Y-83.17
X146.83Y-64.13
X146.83Y-102.26
X146.85Y-83.17
X155.74Y-64.13
X155.74Y-83.19
X155.74Y-102.24
X165.9Y-64.13
X165.9Y-83.19
X165.9Y-102.24
X174.82Y-83.18
X184.98Y-83.18
T2
X122.71Y-64.11
X122.71Y-83.19
X122.71Y-102.26
X141.75Y-64.13
X141.75Y-102.26
X141.77Y-83.17
X160.82Y-64.13
X160.82Y-83.19
X160.82Y-102.24
X179.9Y-83.18
M30
